<mxfile host="app.diagrams.net" modified="2024-06-01T14:26:56.354Z" agent="Mozilla/5.0 (Windows NT 10.0; Win64; x64) AppleWebKit/537.36 (KHTML, like Gecko) Chrome/125.0.0.0 Safari/537.36" etag="pxn6XNWZwMxkni5-1DAn" version="24.4.2" type="device">
  <diagram name="ApiHttpSimServer" id="c1N2gm2i2Y3FLB8LSriW">
    <mxGraphModel dx="1434" dy="756" grid="1" gridSize="10" guides="1" tooltips="1" connect="1" arrows="1" fold="1" page="1" pageScale="1" pageWidth="850" pageHeight="1100" math="0" shadow="0">
      <root>
        <mxCell id="2hW3goxWSACIlkDk5ILS-0" />
        <mxCell id="2hW3goxWSACIlkDk5ILS-1" parent="2hW3goxWSACIlkDk5ILS-0" />
        <mxCell id="2hW3goxWSACIlkDk5ILS-2" value="&lt;span style=&quot;text-align: center;&quot;&gt;ApiHttpSimServer&lt;/span&gt;" style="rounded=0;whiteSpace=wrap;html=1;verticalAlign=top;align=left;" vertex="1" parent="2hW3goxWSACIlkDk5ILS-1">
          <mxGeometry x="40" y="40" width="490" height="400" as="geometry" />
        </mxCell>
        <mxCell id="2hW3goxWSACIlkDk5ILS-3" style="edgeStyle=orthogonalEdgeStyle;rounded=0;orthogonalLoop=1;jettySize=auto;html=1;entryX=0;entryY=0.5;entryDx=0;entryDy=0;" edge="1" parent="2hW3goxWSACIlkDk5ILS-1" source="2hW3goxWSACIlkDk5ILS-6" target="2hW3goxWSACIlkDk5ILS-9">
          <mxGeometry relative="1" as="geometry" />
        </mxCell>
        <mxCell id="2hW3goxWSACIlkDk5ILS-4" style="edgeStyle=orthogonalEdgeStyle;rounded=0;orthogonalLoop=1;jettySize=auto;html=1;entryX=0;entryY=0.75;entryDx=0;entryDy=0;" edge="1" parent="2hW3goxWSACIlkDk5ILS-1" source="2hW3goxWSACIlkDk5ILS-6">
          <mxGeometry relative="1" as="geometry">
            <mxPoint x="634.9999999999998" y="85" as="targetPoint" />
            <Array as="points">
              <mxPoint x="140" y="85" />
            </Array>
          </mxGeometry>
        </mxCell>
        <mxCell id="2hW3goxWSACIlkDk5ILS-5" value="HTTP Response" style="edgeLabel;html=1;align=center;verticalAlign=middle;resizable=0;points=[];" vertex="1" connectable="0" parent="2hW3goxWSACIlkDk5ILS-4">
          <mxGeometry x="0.168" relative="1" as="geometry">
            <mxPoint as="offset" />
          </mxGeometry>
        </mxCell>
        <mxCell id="2hW3goxWSACIlkDk5ILS-6" value="WebApplication" style="rounded=0;whiteSpace=wrap;html=1;" vertex="1" parent="2hW3goxWSACIlkDk5ILS-1">
          <mxGeometry x="60" y="170" width="150" height="90" as="geometry" />
        </mxCell>
        <mxCell id="2hW3goxWSACIlkDk5ILS-7" value="IHttpSimRuleStore" style="rounded=0;whiteSpace=wrap;html=1;" vertex="1" parent="2hW3goxWSACIlkDk5ILS-1">
          <mxGeometry x="280" y="270" width="130" height="40" as="geometry" />
        </mxCell>
        <mxCell id="2hW3goxWSACIlkDk5ILS-8" value="" style="edgeStyle=orthogonalEdgeStyle;rounded=0;orthogonalLoop=1;jettySize=auto;html=1;" edge="1" parent="2hW3goxWSACIlkDk5ILS-1" source="2hW3goxWSACIlkDk5ILS-9" target="2hW3goxWSACIlkDk5ILS-7">
          <mxGeometry relative="1" as="geometry" />
        </mxCell>
        <mxCell id="2hW3goxWSACIlkDk5ILS-9" value="IHttpSimRuleResolver" style="rounded=0;whiteSpace=wrap;html=1;" vertex="1" parent="2hW3goxWSACIlkDk5ILS-1">
          <mxGeometry x="280" y="195" width="130" height="40" as="geometry" />
        </mxCell>
        <mxCell id="2hW3goxWSACIlkDk5ILS-10" style="edgeStyle=orthogonalEdgeStyle;rounded=0;orthogonalLoop=1;jettySize=auto;html=1;entryX=0.5;entryY=1;entryDx=0;entryDy=0;" edge="1" parent="2hW3goxWSACIlkDk5ILS-1" source="2hW3goxWSACIlkDk5ILS-11" target="2hW3goxWSACIlkDk5ILS-7">
          <mxGeometry relative="1" as="geometry" />
        </mxCell>
        <mxCell id="2hW3goxWSACIlkDk5ILS-11" value="IHttpSimRuleManager[]" style="rounded=0;whiteSpace=wrap;html=1;" vertex="1" parent="2hW3goxWSACIlkDk5ILS-1">
          <mxGeometry x="280" y="340" width="130" height="60" as="geometry" />
        </mxCell>
        <mxCell id="2hW3goxWSACIlkDk5ILS-12" style="edgeStyle=orthogonalEdgeStyle;rounded=0;orthogonalLoop=1;jettySize=auto;html=1;entryX=1.001;entryY=0.827;entryDx=0;entryDy=0;entryPerimeter=0;" edge="1" parent="2hW3goxWSACIlkDk5ILS-1" source="2hW3goxWSACIlkDk5ILS-13" target="2hW3goxWSACIlkDk5ILS-2">
          <mxGeometry relative="1" as="geometry" />
        </mxCell>
        <mxCell id="2hW3goxWSACIlkDk5ILS-13" value="CreateRule()&lt;br&gt;When()&lt;br&gt;Return()&lt;br&gt;Callback()&lt;br&gt;Varify()" style="shape=umlActor;verticalLabelPosition=bottom;verticalAlign=top;html=1;outlineConnect=0;align=left;" vertex="1" parent="2hW3goxWSACIlkDk5ILS-1">
          <mxGeometry x="680" y="340" width="30" height="60" as="geometry" />
        </mxCell>
        <mxCell id="2hW3goxWSACIlkDk5ILS-14" style="edgeStyle=orthogonalEdgeStyle;rounded=0;orthogonalLoop=1;jettySize=auto;html=1;entryX=0.299;entryY=-0.029;entryDx=0;entryDy=0;entryPerimeter=0;" edge="1" parent="2hW3goxWSACIlkDk5ILS-1" target="2hW3goxWSACIlkDk5ILS-6">
          <mxGeometry relative="1" as="geometry">
            <mxPoint x="634.9999999999998" y="70" as="sourcePoint" />
          </mxGeometry>
        </mxCell>
        <mxCell id="2hW3goxWSACIlkDk5ILS-15" value="HTTP Request" style="edgeLabel;html=1;align=center;verticalAlign=middle;resizable=0;points=[];" vertex="1" connectable="0" parent="2hW3goxWSACIlkDk5ILS-14">
          <mxGeometry x="-0.031" y="-1" relative="1" as="geometry">
            <mxPoint as="offset" />
          </mxGeometry>
        </mxCell>
        <mxCell id="2hW3goxWSACIlkDk5ILS-16" value="Test" style="shape=umlActor;verticalLabelPosition=bottom;verticalAlign=top;html=1;outlineConnect=0;" vertex="1" parent="2hW3goxWSACIlkDk5ILS-1">
          <mxGeometry x="640" y="40" width="30" height="60" as="geometry" />
        </mxCell>
      </root>
    </mxGraphModel>
  </diagram>
</mxfile>
